<svg width="19" height="19" viewBox="0 0 19 19" fill="none" xmlns="http://www.w3.org/2000/svg">
<path d="M3.06661 0.783343L9.49995 7.21668L15.8999 0.816677C16.0413 0.666206 16.2116 0.545835 16.4006 0.462781C16.5897 0.379727 16.7935 0.335701 16.9999 0.333344C17.442 0.333344 17.8659 0.508938 18.1785 0.821499C18.491 1.13406 18.6666 1.55798 18.6666 2.00001C18.6705 2.20435 18.6326 2.40732 18.5552 2.59648C18.4778 2.78564 18.3626 2.95699 18.2166 3.10001L11.7333 9.50001L18.2166 15.9833C18.4913 16.2521 18.6524 16.616 18.6666 17C18.6666 17.442 18.491 17.866 18.1785 18.1785C17.8659 18.4911 17.442 18.6667 16.9999 18.6667C16.7875 18.6755 16.5756 18.64 16.3776 18.5626C16.1797 18.4851 16 18.3673 15.8499 18.2167L9.49995 11.7833L3.08328 18.2C2.94246 18.3455 2.77422 18.4616 2.58828 18.5417C2.40235 18.6218 2.20239 18.6643 1.99995 18.6667C1.55792 18.6667 1.13399 18.4911 0.821434 18.1785C0.508874 17.866 0.333279 17.442 0.333279 17C0.329393 16.7957 0.367305 16.5927 0.444687 16.4035C0.52207 16.2144 0.637291 16.043 0.783279 15.9L7.26661 9.50001L0.783279 3.01668C0.508587 2.74794 0.347512 2.38403 0.333279 2.00001C0.333279 1.55798 0.508874 1.13406 0.821434 0.821499C1.13399 0.508938 1.55792 0.333344 1.99995 0.333344C2.39995 0.338344 2.78328 0.50001 3.06661 0.783343Z" fill="#3F660D"/>
</svg>
