<svg width="100" height="96" viewBox="0 0 100 96" fill="none" xmlns="http://www.w3.org/2000/svg">
<path d="M70 38.3996C70 43.4917 67.8929 48.3752 64.1421 51.9759C60.3914 55.5765 55.3043 57.5994 50 57.5994C44.6957 57.5994 39.6086 55.5765 35.8579 51.9759C32.1071 48.3752 30 43.4917 30 38.3996C30 33.3075 32.1071 28.4239 35.8579 24.8233C39.6086 21.2226 44.6957 19.1998 50 19.1998C55.3043 19.1998 60.3914 21.2226 64.1421 24.8233C67.8929 28.4239 70 33.3075 70 38.3996Z" fill="#1CA306"/>
<path fill-rule="evenodd" clip-rule="evenodd" d="M47.96 95.9605C21.2925 94.9333 0 73.852 0 47.9995C0 21.4894 22.385 0 50 0C77.615 0 100 21.4894 100 47.9995C100 74.5096 77.615 95.9989 50 95.9989C49.7717 96.0004 49.5433 96.0004 49.315 95.9989C48.8625 95.9989 48.41 95.9845 47.96 95.9605ZM17.915 78.2871C17.5412 77.2565 17.4139 76.1583 17.5427 75.074C17.6715 73.9897 18.053 72.9472 18.6589 72.0238C19.2649 71.1005 20.0797 70.32 21.0428 69.7403C22.006 69.1606 23.0927 68.7966 24.2225 68.6752C43.7125 66.6041 56.4075 66.7913 75.8025 68.7184C76.9338 68.8315 78.0232 69.191 78.9879 69.7693C79.9526 70.3477 80.7671 71.1298 81.3694 72.0561C81.9716 72.9823 82.3457 74.0283 82.4633 75.1143C82.5808 76.2004 82.4386 77.2978 82.0475 78.3231C90.3598 70.2494 95.0149 59.3512 95 47.9995C95 24.1413 74.8525 4.79995 50 4.79995C25.1475 4.79995 5 24.1413 5 47.9995C5 59.7977 9.9275 70.492 17.915 78.2871Z" fill="#1CA306"/>
</svg>
