<svg width="30" height="33" viewBox="0 0 30 33" fill="none" xmlns="http://www.w3.org/2000/svg">
<path d="M0 18.8571C0 22.6081 1.58035 26.2054 4.3934 28.8577C7.20644 31.51 11.0218 33 15 33C15 25.1429 8.28333 18.8571 0 18.8571ZM15 7.07143C16.1051 7.07143 17.1649 7.48533 17.9463 8.22208C18.7277 8.95883 19.1667 9.95808 19.1667 11C19.1667 12.0419 18.7277 13.0412 17.9463 13.7779C17.1649 14.5147 16.1051 14.9286 15 14.9286C13.8949 14.9286 12.8351 14.5147 12.0537 13.7779C11.2723 13.0412 10.8333 12.0419 10.8333 11C10.8333 9.95808 11.2723 8.95883 12.0537 8.22208C12.8351 7.48533 13.8949 7.07143 15 7.07143ZM4.33333 14.5357C4.33333 15.5776 4.77232 16.5769 5.55372 17.3136C6.33512 18.0504 7.39493 18.4643 8.5 18.4643C9.38333 18.4643 10.2 18.1971 10.8333 17.7729V18.0714C10.8333 19.1133 11.2723 20.1126 12.0537 20.8493C12.8351 21.5861 13.8949 22 15 22C16.1051 22 17.1649 21.5861 17.9463 20.8493C18.7277 20.1126 19.1667 19.1133 19.1667 18.0714V17.7729C19.8 18.1971 20.6167 18.4643 21.5 18.4643C22.6051 18.4643 23.6649 18.0504 24.4463 17.3136C25.2277 16.5769 25.6667 15.5776 25.6667 14.5357C25.6667 12.9643 24.6833 11.6286 23.2833 11C24.6833 10.3714 25.6667 9.02 25.6667 7.46429C25.6667 6.42236 25.2277 5.42312 24.4463 4.68637C23.6649 3.94962 22.6051 3.53571 21.5 3.53571C20.6167 3.53571 19.8 3.78714 19.1667 4.22714V3.92857C19.1667 2.88665 18.7277 1.8874 17.9463 1.15065C17.1649 0.413902 16.1051 0 15 0C13.8949 0 12.8351 0.413902 12.0537 1.15065C11.2723 1.8874 10.8333 2.88665 10.8333 3.92857V4.22714C10.2 3.78714 9.38333 3.53571 8.5 3.53571C7.39493 3.53571 6.33512 3.94962 5.55372 4.68637C4.77232 5.42312 4.33333 6.42236 4.33333 7.46429C4.33333 9.02 5.31667 10.3714 6.71667 11C5.31667 11.6286 4.33333 12.9643 4.33333 14.5357ZM15 33C18.9782 33 22.7936 31.51 25.6066 28.8577C28.4196 26.2054 30 22.6081 30 18.8571C21.6667 18.8571 15 25.1429 15 33Z" fill="black"/>
</svg>
