<svg width="110" height="107" viewBox="0 0 110 107" fill="none" xmlns="http://www.w3.org/2000/svg">
<g clip-path="url(#clip0_157_42)">
<path fill-rule="evenodd" clip-rule="evenodd" d="M46.7655 39.2574C44.5612 33.2013 45.0016 26.4636 47.9896 20.5264C50.9776 14.5893 56.2685 9.93907 62.6985 7.59876L81.555 0.735561L88.0191 18.4958C90.2234 24.5518 89.7831 31.2896 86.795 37.2267C83.807 43.1639 78.5161 47.8141 72.0862 50.1544L58.6172 55.0567L71.5456 90.5771L66.158 92.538L58.7704 72.2406L45.3015 77.1429C38.8715 79.4832 31.8293 79.3219 25.7241 76.6944C19.6188 74.067 14.9505 69.1886 12.7463 63.1325L6.28212 45.3723L25.1386 38.5091C32.7566 35.7364 40.7546 36.5721 47.0813 40.1251L46.7655 39.2574ZM55.9796 45.3626L66.6016 24.2568L71.7236 26.4611L61.1017 47.5669L55.9796 45.3626ZM52.0528 68.1001L30.3494 58.7598L32.8562 53.7788L54.5596 63.1191L52.0528 68.1001Z" fill="#1CA306"/>
</g>
<defs>
<clipPath id="clip0_157_42">
<rect width="86" height="81" fill="white" transform="translate(0.741394 30.1493) rotate(-20)"/>
</clipPath>
</defs>
</svg>
